<svg width="530" height="126" viewBox="0 0 530 126" fill="none" xmlns="http://www.w3.org/2000/svg">
<g filter="url(#filter0_d)">
<path d="M72.5938 66.7031H27.5938V97.1719H80.4062V116H4.15625V2.25H80.25V21.2344H27.5938V48.3438H72.5938V66.7031ZM136.578 76.3906H92.5938V58.1875H136.578V76.3906ZM215.172 86.1562C215.172 81.7292 213.609 78.3438 210.484 76C207.359 73.6042 201.734 71.1042 193.609 68.5C185.484 65.8438 179.052 63.2396 174.312 60.6875C161.396 53.7083 154.938 44.3073 154.938 32.4844C154.938 26.3385 156.656 20.8698 160.094 16.0781C163.583 11.2344 168.557 7.45833 175.016 4.75C181.526 2.04167 188.818 0.6875 196.891 0.6875C205.016 0.6875 212.255 2.17188 218.609 5.14062C224.964 8.05729 229.885 12.1979 233.375 17.5625C236.917 22.9271 238.688 29.0208 238.688 35.8438H215.25C215.25 30.6354 213.609 26.599 210.328 23.7344C207.047 20.8177 202.438 19.3594 196.5 19.3594C190.771 19.3594 186.318 20.5833 183.141 23.0312C179.964 25.4271 178.375 28.6042 178.375 32.5625C178.375 36.2604 180.224 39.3594 183.922 41.8594C187.672 44.3594 193.167 46.7031 200.406 48.8906C213.74 52.901 223.453 57.875 229.547 63.8125C235.641 69.75 238.688 77.1458 238.688 86C238.688 95.8438 234.964 103.578 227.516 109.203C220.068 114.776 210.042 117.562 197.438 117.562C188.688 117.562 180.719 115.974 173.531 112.797C166.344 109.568 160.849 105.167 157.047 99.5938C153.297 94.0208 151.422 87.5625 151.422 80.2188H174.938C174.938 92.7708 182.438 99.0469 197.438 99.0469C203.01 99.0469 207.359 97.9271 210.484 95.6875C213.609 93.3958 215.172 90.2188 215.172 86.1562ZM280.172 10.6875V31.4688H294.625V48.0312H280.172V90.2188C280.172 93.3438 280.771 95.5833 281.969 96.9375C283.167 98.2917 285.458 98.9688 288.844 98.9688C291.344 98.9688 293.557 98.7865 295.484 98.4219V115.531C291.057 116.885 286.5 117.562 281.812 117.562C265.979 117.562 257.906 109.568 257.594 93.5781V48.0312H245.25V31.4688H257.594V10.6875H280.172ZM301.344 72.9531C301.344 64.5677 302.958 57.0938 306.188 50.5312C309.417 43.9688 314.052 38.8906 320.094 35.2969C326.188 31.7031 333.245 29.9062 341.266 29.9062C352.672 29.9062 361.969 33.3958 369.156 40.375C376.396 47.3542 380.432 56.8333 381.266 68.8125L381.422 74.5938C381.422 87.5625 377.802 97.9792 370.562 105.844C363.323 113.656 353.609 117.562 341.422 117.562C329.234 117.562 319.495 113.656 312.203 105.844C304.964 98.0312 301.344 87.4062 301.344 73.9688V72.9531ZM323.922 74.5938C323.922 82.6146 325.432 88.7604 328.453 93.0312C331.474 97.25 335.797 99.3594 341.422 99.3594C346.891 99.3594 351.161 97.276 354.234 93.1094C357.307 88.8906 358.844 82.1719 358.844 72.9531C358.844 65.0885 357.307 58.9948 354.234 54.6719C351.161 50.349 346.839 48.1875 341.266 48.1875C335.745 48.1875 331.474 50.349 328.453 54.6719C325.432 58.9427 323.922 65.5833 323.922 74.5938ZM442.828 52.6406C439.755 52.224 437.047 52.0156 434.703 52.0156C426.161 52.0156 420.562 54.9062 417.906 60.6875V116H395.328V31.4688H416.656L417.281 41.5469C421.812 33.7865 428.089 29.9062 436.109 29.9062C438.609 29.9062 440.953 30.2448 443.141 30.9219L442.828 52.6406ZM491.109 117.562C478.714 117.562 468.609 113.76 460.797 106.156C453.036 98.5521 449.156 88.4219 449.156 75.7656V73.5781C449.156 65.0885 450.797 57.5104 454.078 50.8438C457.359 44.125 461.995 38.9688 467.984 35.375C474.026 31.7292 480.901 29.9062 488.609 29.9062C500.172 29.9062 509.26 33.5521 515.875 40.8438C522.542 48.1354 525.875 58.474 525.875 71.8594V81.0781H472.047C472.776 86.599 474.964 91.026 478.609 94.3594C482.307 97.6927 486.969 99.3594 492.594 99.3594C501.292 99.3594 508.089 96.2083 512.984 89.9062L524.078 102.328C520.693 107.12 516.109 110.87 510.328 113.578C504.547 116.234 498.141 117.562 491.109 117.562ZM488.531 48.1875C484.052 48.1875 480.406 49.6979 477.594 52.7188C474.833 55.7396 473.062 60.0625 472.281 65.6875H503.688V63.8906C503.583 58.8906 502.229 55.0365 499.625 52.3281C497.021 49.5677 493.323 48.1875 488.531 48.1875Z" fill="#FF9000"/>
</g>
<defs>
<filter id="filter0_d" x="0.15625" y="0.6875" width="529.719" height="124.875" filterUnits="userSpaceOnUse" color-interpolation-filters="sRGB">
<feFlood flood-opacity="0" result="BackgroundImageFix"/>
<feColorMatrix in="SourceAlpha" type="matrix" values="0 0 0 0 0 0 0 0 0 0 0 0 0 0 0 0 0 0 127 0" result="hardAlpha"/>
<feOffset dy="4"/>
<feGaussianBlur stdDeviation="2"/>
<feComposite in2="hardAlpha" operator="out"/>
<feColorMatrix type="matrix" values="0 0 0 0 0 0 0 0 0 0 0 0 0 0 0 0 0 0 0.25 0"/>
<feBlend mode="normal" in2="BackgroundImageFix" result="effect1_dropShadow"/>
<feBlend mode="normal" in="SourceGraphic" in2="effect1_dropShadow" result="shape"/>
</filter>
</defs>
</svg>
